<mxfile host="app.diagrams.net" agent="Mozilla/5.0 (Windows NT 10.0; Win64; x64) AppleWebKit/537.36 (KHTML, like Gecko) Chrome/128.0.0.0 Safari/537.36" version="24.7.10">
  <diagram name="Page-1" id="jw0Ew0xG1-9-6vdu3aY6">
    <mxGraphModel grid="1" page="1" gridSize="10" guides="1" tooltips="1" connect="1" arrows="1" fold="1" pageScale="1" pageWidth="850" pageHeight="1100" math="0" shadow="0">
      <root>
        <mxCell id="0" />
        <mxCell id="1" parent="0" />
        <mxCell id="_Dizf5TkOTmOGYpoTZ8_-41" value="" style="rounded=0;whiteSpace=wrap;html=1;labelBackgroundColor=none;" vertex="1" parent="1">
          <mxGeometry x="970" y="201" width="600" height="720" as="geometry" />
        </mxCell>
        <mxCell id="_Dizf5TkOTmOGYpoTZ8_-42" value="User" style="shape=umlActor;verticalLabelPosition=bottom;verticalAlign=top;html=1;outlineConnect=0;labelBackgroundColor=none;rounded=0;" vertex="1" parent="1">
          <mxGeometry x="880" y="240" width="30" height="60" as="geometry" />
        </mxCell>
        <mxCell id="_Dizf5TkOTmOGYpoTZ8_-43" value="Login" style="ellipse;whiteSpace=wrap;html=1;labelBackgroundColor=none;rounded=0;" vertex="1" parent="1">
          <mxGeometry x="1212.5" y="240" width="115" height="70" as="geometry" />
        </mxCell>
        <mxCell id="_Dizf5TkOTmOGYpoTZ8_-46" value="Search for book" style="ellipse;whiteSpace=wrap;html=1;labelBackgroundColor=none;rounded=0;" vertex="1" parent="1">
          <mxGeometry x="1420" y="330" width="120" height="70" as="geometry" />
        </mxCell>
        <mxCell id="_Dizf5TkOTmOGYpoTZ8_-48" value="Pay fine" style="ellipse;whiteSpace=wrap;html=1;labelBackgroundColor=none;rounded=0;" vertex="1" parent="1">
          <mxGeometry x="1010" y="430" width="120" height="70" as="geometry" />
        </mxCell>
        <mxCell id="_Dizf5TkOTmOGYpoTZ8_-50" value="&lt;div&gt;&lt;span style=&quot;background-color: initial;&quot;&gt;Books database&lt;/span&gt;&lt;br&gt;&lt;/div&gt;" style="ellipse;whiteSpace=wrap;html=1;labelBackgroundColor=none;rounded=0;" vertex="1" parent="1">
          <mxGeometry x="1420" y="526" width="120" height="80" as="geometry" />
        </mxCell>
        <mxCell id="_Dizf5TkOTmOGYpoTZ8_-51" value="&amp;lt;&amp;lt;include&amp;gt;&amp;gt;" style="html=1;verticalAlign=bottom;labelBackgroundColor=none;endArrow=open;endFill=0;dashed=1;rounded=0;entryX=0;entryY=0.5;entryDx=0;entryDy=0;exitX=1;exitY=0.5;exitDx=0;exitDy=0;fontColor=default;" edge="1" parent="1" source="_Dizf5TkOTmOGYpoTZ8_-57" target="_Dizf5TkOTmOGYpoTZ8_-65">
          <mxGeometry width="160" relative="1" as="geometry">
            <mxPoint x="1110" y="270" as="sourcePoint" />
            <mxPoint x="1260" y="270" as="targetPoint" />
          </mxGeometry>
        </mxCell>
        <mxCell id="_Dizf5TkOTmOGYpoTZ8_-52" value="Return Book" style="ellipse;whiteSpace=wrap;html=1;labelBackgroundColor=none;rounded=0;" vertex="1" parent="1">
          <mxGeometry x="1110" y="370" width="120" height="70" as="geometry" />
        </mxCell>
        <mxCell id="_Dizf5TkOTmOGYpoTZ8_-54" value="Admin" style="shape=umlActor;verticalLabelPosition=bottom;verticalAlign=top;html=1;outlineConnect=0;labelBackgroundColor=none;rounded=0;" vertex="1" parent="1">
          <mxGeometry x="880" y="600" width="30" height="60" as="geometry" />
        </mxCell>
        <mxCell id="_Dizf5TkOTmOGYpoTZ8_-57" value="Manage user accounts" style="ellipse;whiteSpace=wrap;html=1;labelBackgroundColor=none;rounded=0;" vertex="1" parent="1">
          <mxGeometry x="1100" y="600" width="120" height="70" as="geometry" />
        </mxCell>
        <mxCell id="_Dizf5TkOTmOGYpoTZ8_-58" value="Add new Bools" style="ellipse;whiteSpace=wrap;html=1;labelBackgroundColor=none;rounded=0;" vertex="1" parent="1">
          <mxGeometry x="1195" y="830" width="120" height="70" as="geometry" />
        </mxCell>
        <mxCell id="_Dizf5TkOTmOGYpoTZ8_-59" value="&amp;lt;&amp;lt;include&amp;gt;&amp;gt;" style="html=1;verticalAlign=bottom;labelBackgroundColor=none;endArrow=open;endFill=0;dashed=1;rounded=0;entryX=0.5;entryY=1;entryDx=0;entryDy=0;exitX=1;exitY=0.5;exitDx=0;exitDy=0;fontColor=default;" edge="1" parent="1" source="_Dizf5TkOTmOGYpoTZ8_-58" target="_Dizf5TkOTmOGYpoTZ8_-50">
          <mxGeometry width="160" relative="1" as="geometry">
            <mxPoint x="1404" y="407" as="sourcePoint" />
            <mxPoint x="1403" y="475" as="targetPoint" />
            <Array as="points">
              <mxPoint x="1480" y="865" />
            </Array>
          </mxGeometry>
        </mxCell>
        <mxCell id="_Dizf5TkOTmOGYpoTZ8_-60" value="Report Generation&amp;nbsp;" style="ellipse;whiteSpace=wrap;html=1;labelBackgroundColor=none;rounded=0;" vertex="1" parent="1">
          <mxGeometry x="1195" y="730" width="120" height="70" as="geometry" />
        </mxCell>
        <mxCell id="_Dizf5TkOTmOGYpoTZ8_-61" value="Login" style="ellipse;whiteSpace=wrap;html=1;labelBackgroundColor=none;rounded=0;" vertex="1" parent="1">
          <mxGeometry x="1070" y="530" width="90" height="60" as="geometry" />
        </mxCell>
        <mxCell id="_Dizf5TkOTmOGYpoTZ8_-65" value="&lt;div&gt;&lt;span style=&quot;background-color: initial;&quot;&gt;Add/Delete User&lt;/span&gt;&lt;br&gt;&lt;/div&gt;" style="ellipse;whiteSpace=wrap;html=1;labelBackgroundColor=none;rounded=0;" vertex="1" parent="1">
          <mxGeometry x="1340" y="640" width="120" height="80" as="geometry" />
        </mxCell>
        <mxCell id="_Dizf5TkOTmOGYpoTZ8_-66" value="&amp;lt;&amp;lt;Include&amp;gt;&amp;gt;" style="edgeStyle=none;html=1;startArrow=open;endArrow=none;startSize=12;verticalAlign=bottom;dashed=1;labelBackgroundColor=none;rounded=0;entryX=0.5;entryY=1;entryDx=0;entryDy=0;exitX=0.5;exitY=0;exitDx=0;exitDy=0;fontColor=default;" edge="1" parent="1" source="_Dizf5TkOTmOGYpoTZ8_-50" target="_Dizf5TkOTmOGYpoTZ8_-46">
          <mxGeometry width="160" relative="1" as="geometry">
            <mxPoint x="1250" y="440" as="sourcePoint" />
            <mxPoint x="1410" y="440" as="targetPoint" />
          </mxGeometry>
        </mxCell>
        <mxCell id="_Dizf5TkOTmOGYpoTZ8_-69" value="&amp;lt;&amp;lt;Include&amp;gt;&amp;gt;" style="edgeStyle=none;html=1;startArrow=open;endArrow=none;startSize=12;verticalAlign=bottom;dashed=1;labelBackgroundColor=none;rounded=0;entryX=1;entryY=1;entryDx=0;entryDy=0;exitX=0;exitY=0.5;exitDx=0;exitDy=0;fontColor=default;" edge="1" parent="1" source="_Dizf5TkOTmOGYpoTZ8_-50" target="_Dizf5TkOTmOGYpoTZ8_-52">
          <mxGeometry width="160" relative="1" as="geometry">
            <mxPoint x="1490" y="480" as="sourcePoint" />
            <mxPoint x="1490" y="410" as="targetPoint" />
          </mxGeometry>
        </mxCell>
        <mxCell id="_Dizf5TkOTmOGYpoTZ8_-74" value="" style="endArrow=none;html=1;rounded=0;entryX=0;entryY=0;entryDx=0;entryDy=0;exitX=0.5;exitY=0.5;exitDx=0;exitDy=0;exitPerimeter=0;labelBackgroundColor=none;fontColor=default;" edge="1" parent="1" source="_Dizf5TkOTmOGYpoTZ8_-42" target="_Dizf5TkOTmOGYpoTZ8_-48">
          <mxGeometry width="50" height="50" relative="1" as="geometry">
            <mxPoint x="890" y="450" as="sourcePoint" />
            <mxPoint x="940" y="400" as="targetPoint" />
          </mxGeometry>
        </mxCell>
        <mxCell id="_Dizf5TkOTmOGYpoTZ8_-75" value="" style="endArrow=none;html=1;rounded=0;entryX=0;entryY=0;entryDx=0;entryDy=0;exitX=0.5;exitY=0.5;exitDx=0;exitDy=0;exitPerimeter=0;labelBackgroundColor=none;fontColor=default;" edge="1" parent="1" source="_Dizf5TkOTmOGYpoTZ8_-42" target="_Dizf5TkOTmOGYpoTZ8_-52">
          <mxGeometry width="50" height="50" relative="1" as="geometry">
            <mxPoint x="905" y="270" as="sourcePoint" />
            <mxPoint x="1077" y="440" as="targetPoint" />
          </mxGeometry>
        </mxCell>
        <mxCell id="_Dizf5TkOTmOGYpoTZ8_-76" value="" style="endArrow=none;html=1;rounded=0;entryX=0;entryY=0.5;entryDx=0;entryDy=0;exitX=0.5;exitY=0.5;exitDx=0;exitDy=0;exitPerimeter=0;labelBackgroundColor=none;fontColor=default;" edge="1" parent="1" source="_Dizf5TkOTmOGYpoTZ8_-42" target="_Dizf5TkOTmOGYpoTZ8_-46">
          <mxGeometry width="50" height="50" relative="1" as="geometry">
            <mxPoint x="915" y="280" as="sourcePoint" />
            <mxPoint x="1087" y="450" as="targetPoint" />
          </mxGeometry>
        </mxCell>
        <mxCell id="_Dizf5TkOTmOGYpoTZ8_-77" value="" style="endArrow=none;html=1;rounded=0;exitX=0.5;exitY=0.5;exitDx=0;exitDy=0;exitPerimeter=0;labelBackgroundColor=none;fontColor=default;entryX=0;entryY=0.5;entryDx=0;entryDy=0;" edge="1" parent="1" source="_Dizf5TkOTmOGYpoTZ8_-42" target="_Dizf5TkOTmOGYpoTZ8_-43">
          <mxGeometry width="50" height="50" relative="1" as="geometry">
            <mxPoint x="900" y="260" as="sourcePoint" />
            <mxPoint x="1180" y="260" as="targetPoint" />
          </mxGeometry>
        </mxCell>
        <mxCell id="_Dizf5TkOTmOGYpoTZ8_-78" value="" style="endArrow=none;html=1;rounded=0;entryX=0;entryY=0.5;entryDx=0;entryDy=0;exitX=0.5;exitY=0.5;exitDx=0;exitDy=0;exitPerimeter=0;labelBackgroundColor=none;fontColor=default;" edge="1" parent="1" source="_Dizf5TkOTmOGYpoTZ8_-54" target="_Dizf5TkOTmOGYpoTZ8_-61">
          <mxGeometry width="50" height="50" relative="1" as="geometry">
            <mxPoint x="905" y="270" as="sourcePoint" />
            <mxPoint x="1077" y="440" as="targetPoint" />
          </mxGeometry>
        </mxCell>
        <mxCell id="_Dizf5TkOTmOGYpoTZ8_-79" value="" style="endArrow=none;html=1;rounded=0;entryX=0;entryY=0.5;entryDx=0;entryDy=0;exitX=0.5;exitY=0.5;exitDx=0;exitDy=0;exitPerimeter=0;labelBackgroundColor=none;fontColor=default;" edge="1" parent="1" source="_Dizf5TkOTmOGYpoTZ8_-54" target="_Dizf5TkOTmOGYpoTZ8_-57">
          <mxGeometry width="50" height="50" relative="1" as="geometry">
            <mxPoint x="900" y="630" as="sourcePoint" />
            <mxPoint x="1080" y="570" as="targetPoint" />
          </mxGeometry>
        </mxCell>
        <mxCell id="_Dizf5TkOTmOGYpoTZ8_-80" value="" style="endArrow=none;html=1;rounded=0;entryX=0;entryY=0.5;entryDx=0;entryDy=0;exitX=0.5;exitY=0.5;exitDx=0;exitDy=0;exitPerimeter=0;labelBackgroundColor=none;fontColor=default;" edge="1" parent="1" source="_Dizf5TkOTmOGYpoTZ8_-54" target="_Dizf5TkOTmOGYpoTZ8_-60">
          <mxGeometry width="50" height="50" relative="1" as="geometry">
            <mxPoint x="910" y="640" as="sourcePoint" />
            <mxPoint x="1110" y="645" as="targetPoint" />
          </mxGeometry>
        </mxCell>
        <mxCell id="_Dizf5TkOTmOGYpoTZ8_-81" value="" style="endArrow=none;html=1;rounded=0;entryX=0;entryY=0.5;entryDx=0;entryDy=0;exitX=0.5;exitY=0.5;exitDx=0;exitDy=0;exitPerimeter=0;labelBackgroundColor=none;fontColor=default;" edge="1" parent="1" source="_Dizf5TkOTmOGYpoTZ8_-54" target="_Dizf5TkOTmOGYpoTZ8_-58">
          <mxGeometry width="50" height="50" relative="1" as="geometry">
            <mxPoint x="905" y="640" as="sourcePoint" />
            <mxPoint x="1205" y="775" as="targetPoint" />
          </mxGeometry>
        </mxCell>
        <mxCell id="_Dizf5TkOTmOGYpoTZ8_-165" value="User" style="shape=umlActor;verticalLabelPosition=bottom;verticalAlign=top;html=1;outlineConnect=0;labelBackgroundColor=none;rounded=0;" vertex="1" parent="1">
          <mxGeometry x="110" y="1384.5" width="30" height="60" as="geometry" />
        </mxCell>
        <mxCell id="_Dizf5TkOTmOGYpoTZ8_-193" value="" style="rounded=0;whiteSpace=wrap;html=1;" vertex="1" parent="1">
          <mxGeometry x="240" y="1164.5" width="490" height="960" as="geometry" />
        </mxCell>
        <mxCell id="_Dizf5TkOTmOGYpoTZ8_-166" value="Login" style="ellipse;whiteSpace=wrap;html=1;labelBackgroundColor=none;rounded=0;" vertex="1" parent="1">
          <mxGeometry x="341.25" y="1174.5" width="137.5" height="80" as="geometry" />
        </mxCell>
        <mxCell id="_Dizf5TkOTmOGYpoTZ8_-167" value="Browse Product" style="ellipse;whiteSpace=wrap;html=1;labelBackgroundColor=none;rounded=0;" vertex="1" parent="1">
          <mxGeometry x="350" y="1264.5" width="120" height="70" as="geometry" />
        </mxCell>
        <mxCell id="_Dizf5TkOTmOGYpoTZ8_-168" value="Track Order" style="ellipse;whiteSpace=wrap;html=1;labelBackgroundColor=none;rounded=0;" vertex="1" parent="1">
          <mxGeometry x="355" y="1534.5" width="120" height="70" as="geometry" />
        </mxCell>
        <mxCell id="_Dizf5TkOTmOGYpoTZ8_-171" value="Admin" style="shape=umlActor;verticalLabelPosition=bottom;verticalAlign=top;html=1;outlineConnect=0;labelBackgroundColor=none;rounded=0;" vertex="1" parent="1">
          <mxGeometry x="80" y="1654.5" width="30" height="60" as="geometry" />
        </mxCell>
        <mxCell id="_Dizf5TkOTmOGYpoTZ8_-172" value="Manage user accounts" style="ellipse;whiteSpace=wrap;html=1;labelBackgroundColor=none;rounded=0;" vertex="1" parent="1">
          <mxGeometry x="330" y="1803.5" width="120" height="70" as="geometry" />
        </mxCell>
        <mxCell id="_Dizf5TkOTmOGYpoTZ8_-173" value="Manage Products" style="ellipse;whiteSpace=wrap;html=1;labelBackgroundColor=none;rounded=0;" vertex="1" parent="1">
          <mxGeometry x="330" y="2014.5" width="120" height="70" as="geometry" />
        </mxCell>
        <mxCell id="_Dizf5TkOTmOGYpoTZ8_-175" value="Handle customer Inquiries" style="ellipse;whiteSpace=wrap;html=1;labelBackgroundColor=none;rounded=0;" vertex="1" parent="1">
          <mxGeometry x="335" y="1899.5" width="120" height="70" as="geometry" />
        </mxCell>
        <mxCell id="_Dizf5TkOTmOGYpoTZ8_-176" value="Login" style="ellipse;whiteSpace=wrap;html=1;labelBackgroundColor=none;rounded=0;" vertex="1" parent="1">
          <mxGeometry x="335" y="1714.5" width="110" height="69" as="geometry" />
        </mxCell>
        <mxCell id="_Dizf5TkOTmOGYpoTZ8_-179" value="" style="endArrow=none;html=1;rounded=0;entryX=0;entryY=0;entryDx=0;entryDy=0;exitX=0.5;exitY=0.5;exitDx=0;exitDy=0;exitPerimeter=0;labelBackgroundColor=none;fontColor=default;" edge="1" parent="1" source="_Dizf5TkOTmOGYpoTZ8_-165" target="_Dizf5TkOTmOGYpoTZ8_-168">
          <mxGeometry width="50" height="50" relative="1" as="geometry">
            <mxPoint x="120" y="1583.5" as="sourcePoint" />
            <mxPoint x="170" y="1533.5" as="targetPoint" />
          </mxGeometry>
        </mxCell>
        <mxCell id="_Dizf5TkOTmOGYpoTZ8_-180" value="" style="endArrow=none;html=1;rounded=0;entryX=0;entryY=0.5;entryDx=0;entryDy=0;exitX=0.5;exitY=0.5;exitDx=0;exitDy=0;exitPerimeter=0;labelBackgroundColor=none;fontColor=default;" edge="1" parent="1" source="_Dizf5TkOTmOGYpoTZ8_-165" target="_Dizf5TkOTmOGYpoTZ8_-167">
          <mxGeometry width="50" height="50" relative="1" as="geometry">
            <mxPoint x="145" y="1413.5" as="sourcePoint" />
            <mxPoint x="317" y="1583.5" as="targetPoint" />
          </mxGeometry>
        </mxCell>
        <mxCell id="_Dizf5TkOTmOGYpoTZ8_-181" value="" style="endArrow=none;html=1;rounded=0;exitX=0.5;exitY=0.5;exitDx=0;exitDy=0;exitPerimeter=0;labelBackgroundColor=none;fontColor=default;entryX=0;entryY=0.5;entryDx=0;entryDy=0;" edge="1" parent="1" source="_Dizf5TkOTmOGYpoTZ8_-165" target="_Dizf5TkOTmOGYpoTZ8_-166">
          <mxGeometry width="50" height="50" relative="1" as="geometry">
            <mxPoint x="130" y="1393.5" as="sourcePoint" />
            <mxPoint x="410" y="1393.5" as="targetPoint" />
          </mxGeometry>
        </mxCell>
        <mxCell id="_Dizf5TkOTmOGYpoTZ8_-182" value="" style="endArrow=none;html=1;rounded=0;entryX=0;entryY=0.5;entryDx=0;entryDy=0;exitX=0.5;exitY=0.5;exitDx=0;exitDy=0;exitPerimeter=0;labelBackgroundColor=none;fontColor=default;" edge="1" parent="1" source="_Dizf5TkOTmOGYpoTZ8_-171" target="_Dizf5TkOTmOGYpoTZ8_-176">
          <mxGeometry width="50" height="50" relative="1" as="geometry">
            <mxPoint x="120" y="1418.5" as="sourcePoint" />
            <mxPoint x="292" y="1588.5" as="targetPoint" />
          </mxGeometry>
        </mxCell>
        <mxCell id="_Dizf5TkOTmOGYpoTZ8_-183" value="" style="endArrow=none;html=1;rounded=0;entryX=0;entryY=0.5;entryDx=0;entryDy=0;exitX=0.5;exitY=0.5;exitDx=0;exitDy=0;exitPerimeter=0;labelBackgroundColor=none;fontColor=default;" edge="1" parent="1" source="_Dizf5TkOTmOGYpoTZ8_-171" target="_Dizf5TkOTmOGYpoTZ8_-172">
          <mxGeometry width="50" height="50" relative="1" as="geometry">
            <mxPoint x="115" y="1778.5" as="sourcePoint" />
            <mxPoint x="295" y="1718.5" as="targetPoint" />
          </mxGeometry>
        </mxCell>
        <mxCell id="_Dizf5TkOTmOGYpoTZ8_-184" value="" style="endArrow=none;html=1;rounded=0;entryX=0;entryY=0.5;entryDx=0;entryDy=0;exitX=0.5;exitY=0.5;exitDx=0;exitDy=0;exitPerimeter=0;labelBackgroundColor=none;fontColor=default;" edge="1" parent="1" source="_Dizf5TkOTmOGYpoTZ8_-171" target="_Dizf5TkOTmOGYpoTZ8_-175">
          <mxGeometry width="50" height="50" relative="1" as="geometry">
            <mxPoint x="125" y="1788.5" as="sourcePoint" />
            <mxPoint x="325" y="1793.5" as="targetPoint" />
          </mxGeometry>
        </mxCell>
        <mxCell id="_Dizf5TkOTmOGYpoTZ8_-185" value="" style="endArrow=none;html=1;rounded=0;entryX=0;entryY=0.5;entryDx=0;entryDy=0;exitX=0.5;exitY=0.5;exitDx=0;exitDy=0;exitPerimeter=0;labelBackgroundColor=none;fontColor=default;" edge="1" parent="1" source="_Dizf5TkOTmOGYpoTZ8_-171" target="_Dizf5TkOTmOGYpoTZ8_-173">
          <mxGeometry width="50" height="50" relative="1" as="geometry">
            <mxPoint x="120" y="1788.5" as="sourcePoint" />
            <mxPoint x="420" y="1923.5" as="targetPoint" />
          </mxGeometry>
        </mxCell>
        <mxCell id="_Dizf5TkOTmOGYpoTZ8_-186" value="Add Item" style="ellipse;whiteSpace=wrap;html=1;labelBackgroundColor=none;rounded=0;" vertex="1" parent="1">
          <mxGeometry x="350" y="1364.5" width="120" height="70" as="geometry" />
        </mxCell>
        <mxCell id="_Dizf5TkOTmOGYpoTZ8_-188" value="Place Orders" style="ellipse;whiteSpace=wrap;html=1;labelBackgroundColor=none;rounded=0;" vertex="1" parent="1">
          <mxGeometry x="360" y="1454.5" width="110" height="70" as="geometry" />
        </mxCell>
        <mxCell id="_Dizf5TkOTmOGYpoTZ8_-190" value="Leave Review" style="ellipse;whiteSpace=wrap;html=1;labelBackgroundColor=none;rounded=0;" vertex="1" parent="1">
          <mxGeometry x="350" y="1624.5" width="120" height="70" as="geometry" />
        </mxCell>
        <mxCell id="_Dizf5TkOTmOGYpoTZ8_-191" value="" style="endArrow=none;html=1;rounded=0;entryX=0.027;entryY=0.334;entryDx=0;entryDy=0;exitX=0.5;exitY=0.5;exitDx=0;exitDy=0;exitPerimeter=0;labelBackgroundColor=none;fontColor=default;entryPerimeter=0;" edge="1" parent="1" source="_Dizf5TkOTmOGYpoTZ8_-165" target="_Dizf5TkOTmOGYpoTZ8_-190">
          <mxGeometry width="50" height="50" relative="1" as="geometry">
            <mxPoint x="135" y="1424.5" as="sourcePoint" />
            <mxPoint x="327" y="1485.5" as="targetPoint" />
          </mxGeometry>
        </mxCell>
        <mxCell id="_Dizf5TkOTmOGYpoTZ8_-192" value="" style="endArrow=none;html=1;rounded=0;entryX=0;entryY=0.5;entryDx=0;entryDy=0;exitX=0.5;exitY=0.5;exitDx=0;exitDy=0;exitPerimeter=0;labelBackgroundColor=none;fontColor=default;" edge="1" parent="1" source="_Dizf5TkOTmOGYpoTZ8_-165" target="_Dizf5TkOTmOGYpoTZ8_-186">
          <mxGeometry width="50" height="50" relative="1" as="geometry">
            <mxPoint x="135" y="1424.5" as="sourcePoint" />
            <mxPoint x="348" y="1617.5" as="targetPoint" />
          </mxGeometry>
        </mxCell>
        <mxCell id="_Dizf5TkOTmOGYpoTZ8_-198" value="&amp;lt;&amp;lt;include&amp;gt;&amp;gt;" style="html=1;verticalAlign=bottom;labelBackgroundColor=none;endArrow=open;endFill=0;dashed=1;rounded=0;entryX=1;entryY=0.5;entryDx=0;entryDy=0;exitX=1;exitY=0.5;exitDx=0;exitDy=0;fontColor=default;" edge="1" parent="1" source="_Dizf5TkOTmOGYpoTZ8_-173" target="_Dizf5TkOTmOGYpoTZ8_-167">
          <mxGeometry width="160" relative="1" as="geometry">
            <mxPoint x="270" y="2058.5" as="sourcePoint" />
            <mxPoint x="630" y="1649.5" as="targetPoint" />
            <Array as="points">
              <mxPoint x="660" y="2054.5" />
              <mxPoint x="660" y="1294.5" />
            </Array>
          </mxGeometry>
        </mxCell>
        <mxCell id="_Dizf5TkOTmOGYpoTZ8_-200" value="" style="endArrow=none;html=1;rounded=0;entryX=0;entryY=0.5;entryDx=0;entryDy=0;exitX=0.5;exitY=0.5;exitDx=0;exitDy=0;exitPerimeter=0;labelBackgroundColor=none;fontColor=default;" edge="1" parent="1" source="_Dizf5TkOTmOGYpoTZ8_-165" target="_Dizf5TkOTmOGYpoTZ8_-188">
          <mxGeometry width="50" height="50" relative="1" as="geometry">
            <mxPoint x="135" y="1424.5" as="sourcePoint" />
            <mxPoint x="378" y="1444.5" as="targetPoint" />
          </mxGeometry>
        </mxCell>
        <mxCell id="_Dizf5TkOTmOGYpoTZ8_-203" value="&amp;lt;&amp;lt;extend&amp;gt;&amp;gt;" style="edgeStyle=none;html=1;startArrow=open;endArrow=none;startSize=12;verticalAlign=bottom;dashed=1;labelBackgroundColor=none;entryX=1;entryY=1;entryDx=0;entryDy=0;exitX=0.942;exitY=0.264;exitDx=0;exitDy=0;exitPerimeter=0;" edge="1" parent="1" source="_Dizf5TkOTmOGYpoTZ8_-186" target="_Dizf5TkOTmOGYpoTZ8_-167">
          <mxGeometry width="160" relative="1" as="geometry">
            <mxPoint x="480" y="1354.5" as="sourcePoint" />
            <mxPoint x="640" y="1354.5" as="targetPoint" />
            <Array as="points">
              <mxPoint x="580" y="1364.5" />
            </Array>
          </mxGeometry>
        </mxCell>
        <mxCell id="_Dizf5TkOTmOGYpoTZ8_-204" value="&amp;lt;&amp;lt;extend&amp;gt;&amp;gt;" style="edgeStyle=none;html=1;startArrow=open;endArrow=none;startSize=12;verticalAlign=bottom;dashed=1;labelBackgroundColor=none;entryX=1;entryY=0.5;entryDx=0;entryDy=0;exitX=1;exitY=0.5;exitDx=0;exitDy=0;" edge="1" parent="1" source="_Dizf5TkOTmOGYpoTZ8_-188" target="_Dizf5TkOTmOGYpoTZ8_-186">
          <mxGeometry width="160" relative="1" as="geometry">
            <mxPoint x="478" y="1382.5" as="sourcePoint" />
            <mxPoint x="462" y="1334.5" as="targetPoint" />
            <Array as="points">
              <mxPoint x="580" y="1434.5" />
            </Array>
          </mxGeometry>
        </mxCell>
      </root>
    </mxGraphModel>
  </diagram>
</mxfile>
